<svg width="116" height="116" viewBox="0 0 116 116" fill="none" xmlns="http://www.w3.org/2000/svg">
<path d="M96.55 0H19.01C8.51 0 0 8.51 0 19.01V96.55C0 107.05 8.51 115.55 19.01 115.55H96.55C107.05 115.55 115.56 107.04 115.56 96.55V19.01C115.56 8.51 107.05 0 96.55 0ZM90.8 82.54C95.36 82.54 99.06 86.24 99.06 90.8C99.06 95.36 95.36 99.06 90.8 99.06H24.59H24.5C20.08 99.06 16.5 95.48 16.5 91.06V90.92V90.8V24.76C16.5 20.2 20.2 16.5 24.76 16.5C29.32 16.5 33.02 20.2 33.02 24.76V71.23L49.53 54.72V24.76C49.53 20.2 53.22 16.51 57.78 16.51C62.34 16.51 66.03 20.21 66.03 24.76V38.22L85.41 18.84C86.91 17.34 88.93 16.5 91.05 16.5C95.47 16.5 99.05 20.08 99.05 24.5C99.05 26.62 98.21 28.65 96.71 30.15L77.33 49.53H90.8C95.36 49.53 99.05 53.22 99.05 57.78C99.05 62.34 95.35 66.03 90.8 66.03H60.83L44.32 82.54H90.8Z" fill="#8EBF22"/>
</svg>