<?xml version="1.0" encoding="UTF-8"?>
<svg id="Camada_2" xmlns="http://www.w3.org/2000/svg" viewBox="0 0 379.44 116.46">
  <defs>
    <style>
      .cls-1 {
        fill: #fff;
      }

      .cls-2 {
        fill: #8ebf22;
      }
    </style>
  </defs>
  <g id="Camada_1-2" data-name="Camada_1">
    <g>
      <path class="cls-1" d="M176.91,18.38c0-2.23.8-4.14,2.39-5.73,1.6-1.6,3.55-2.39,5.85-2.39s4.25.8,5.85,2.39c1.6,1.6,2.39,3.51,2.39,5.73s-.8,4.25-2.39,5.85c-1.6,1.6-3.54,2.39-5.85,2.39s-4.25-.8-5.85-2.39c-1.6-1.6-2.39-3.54-2.39-5.85M178.13,31.85h14.59v60.46h-14.59V31.85Z"/>
      <path class="cls-1" d="M198.95,84.07c0-2.23.8-4.14,2.39-5.73,1.6-1.6,3.54-2.4,5.85-2.4s4.25.8,5.85,2.4c1.6,1.6,2.39,3.51,2.39,5.73s-.8,4.25-2.39,5.85c-1.6,1.6-3.54,2.39-5.85,2.39s-4.25-.8-5.85-2.39c-1.6-1.6-2.39-3.54-2.39-5.85"/>
      <path class="cls-1" d="M252.28,44.76c-3.12,0-6.03.8-8.74,2.39-2.71,1.6-4.84,3.73-6.4,6.4-1.63,2.6-2.45,5.53-2.45,8.8l.22,29.95h-13.03l-.11-31.96c0-5.27,1.36-10.15,4.07-14.64,2.71-4.49,6.44-8.07,11.19-10.74,4.6-2.6,9.58-3.9,14.92-3.9l2.9.22v13.7c-1.34-.15-2.19-.22-2.56-.22"/>
      <path class="cls-1" d="M286.24,31.74c4.23,0,8.61,1.02,13.14,3.06,4.53,2.04,8.39,5.4,11.58,10.08,3.49,5.27,5.23,10.95,5.23,17.04,0,1.63-.11,3.23-.33,4.79l-.22-.11v.11l-46.1,1.22c.89,2.45,2.23,4.58,4.01,6.4,1.78,1.82,3.86,3.17,6.23,4.06,1.93.74,4.01,1.11,6.24,1.11,2.52,0,4.95-.5,7.29-1.5,2.34-1,4.32-2.43,5.96-4.29l12.13,4.68c-2.75,4.23-6.38,7.57-10.91,10.02-4.53,2.45-9.35,3.68-14.47,3.68-4.31,0-8.71-1.02-13.2-3.06-4.49-2.04-8.33-5.44-11.52-10.19-3.56-5.27-5.35-10.95-5.35-17.04,0-3.56.67-7.13,2-10.69,2.23-5.79,5.94-10.47,11.13-14.03,5.2-3.56,10.91-5.35,17.15-5.35M302.5,55.56c-.82-2.3-2.1-4.32-3.84-6.07-1.74-1.74-3.8-3.06-6.18-3.95-1.93-.74-4.01-1.11-6.24-1.11-3.64,0-6.98,1-10.02,3.01-3.04,2.01-5.23,4.75-6.57,8.24l-.22.67,33.07-.78Z"/>
      <path class="cls-1" d="M348.82,70.26l1.23,3.9.67-1.89c.3-1.04.48-1.71.56-2l12.8-38.41h15.37l-22.71,60.35h-14.03l-22.05-60.35h15.59l12.58,38.41Z"/>
      <path class="cls-1" d="M265.67,104.36l-1.54,1.81c-.89-.82-2.04-1.22-3.46-1.22-.85-.02-1.53.11-2.03.39-.5.27-.76.67-.76,1.18.02.94.97,1.5,2.85,1.67.74.07,1.39.16,1.93.28.54.12,1.12.31,1.73.58.61.28,1.08.69,1.41,1.24.33.55.49,1.22.49,2.02-.02,1.24-.53,2.24-1.54,3-1.01.76-2.36,1.14-4.04,1.14-2.55,0-4.55-.81-5.98-2.42l1.43-1.94c1.13,1.26,2.67,1.91,4.6,1.94.74,0,1.39-.14,1.94-.43.55-.28.83-.71.85-1.28s-.23-.98-.73-1.25c-.51-.27-1.27-.45-2.3-.56-3.55-.34-5.33-1.65-5.34-3.93,0-1.33.55-2.33,1.66-2.99,1.11-.66,2.37-1,3.79-1,2.05,0,3.74.59,5.05,1.75"/>
      <path class="cls-1" d="M270.6,104.63c1.25-1.29,2.88-1.94,4.88-1.94s3.64.65,4.9,1.95c1.27,1.3,1.9,2.93,1.9,4.88s-.62,3.59-1.87,4.88c-1.25,1.28-2.89,1.93-4.93,1.93s-3.65-.64-4.89-1.93c-1.24-1.29-1.86-2.91-1.86-4.88s.62-3.6,1.87-4.89M275.48,105.21c-1.21,0-2.18.42-2.91,1.25-.74.83-1.1,1.85-1.1,3.06s.36,2.21,1.09,3.03c.73.82,1.7,1.22,2.92,1.22s2.2-.41,2.94-1.22c.73-.82,1.1-1.82,1.1-3.03s-.38-2.2-1.14-3.04c-.76-.84-1.73-1.26-2.9-1.26"/>
      <rect class="cls-1" x="285.82" y="97.48" width="2.74" height="18.58"/>
      <path class="cls-1" d="M292.7,102.95h2.74v7.02c0,1.13.31,2.05.94,2.74.63.69,1.5,1.04,2.62,1.04s1.93-.38,2.62-1.14c.68-.76,1.02-1.7,1.02-2.82v-6.83h2.74v13.13h-2.47l-.16-1.94c-1.24,1.42-2.75,2.13-4.52,2.13-1.65,0-2.98-.56-4-1.67-1.02-1.12-1.53-2.65-1.53-4.6v-7.04Z"/>
      <path class="cls-1" d="M311.1,99.47l2.76-.29v3.8h3.83v2.37h-3.85v6.25c0,1.44.63,2.15,1.89,2.15.51,0,1.07-.15,1.67-.45l.8,2.34c-.89.39-1.76.58-2.63.58-1.43.04-2.54-.34-3.31-1.13-.77-.79-1.16-1.95-1.16-3.5v-6.25h-2.52v-2.37h2.52v-3.51Z"/>
      <path class="cls-1" d="M321.52,100.6c-.57-.29-.85-.79-.85-1.5s.28-1.21.85-1.49c.57-.28,1.13-.28,1.7,0,.57.28.85.78.85,1.49s-.29,1.21-.85,1.5c-.57.29-1.14.29-1.7,0M323.72,102.9h-2.74v13.16h2.74v-13.16Z"/>
      <path class="cls-1" d="M329.03,104.63c1.25-1.29,2.88-1.94,4.88-1.94s3.64.65,4.9,1.95c1.27,1.3,1.9,2.93,1.9,4.88s-.62,3.59-1.87,4.88c-1.25,1.28-2.89,1.93-4.93,1.93s-3.65-.64-4.89-1.93c-1.24-1.29-1.86-2.91-1.86-4.88s.62-3.6,1.87-4.89M333.9,105.21c-1.21,0-2.18.42-2.91,1.25-.74.83-1.1,1.85-1.1,3.06s.36,2.21,1.09,3.03c.73.82,1.7,1.22,2.92,1.22s2.2-.41,2.94-1.22c.73-.82,1.1-1.82,1.1-3.03s-.38-2.2-1.14-3.04c-.76-.84-1.73-1.26-2.9-1.26"/>
      <path class="cls-1" d="M356.84,116.06h-2.77v-7.02c0-1.15-.31-2.07-.93-2.75-.62-.68-1.49-1.02-2.61-1.02s-1.94.38-2.63,1.14c-.69.76-1.04,1.69-1.04,2.79v6.86h-2.74v-13.13h2.5l.16,1.91c1.24-1.4,2.71-2.1,4.41-2.1s3,.56,4.05,1.67c1.05,1.12,1.58,2.65,1.58,4.6v7.04Z"/>
      <path class="cls-2" d="M96.55,0H19.01C8.51,0,0,8.51,0,19.01v77.54c0,10.5,8.51,19,19.01,19h77.54c10.5,0,19.01-8.51,19.01-19V19.01c0-10.5-8.51-19.01-19.01-19.01M90.8,82.54c4.56,0,8.26,3.7,8.26,8.26s-3.7,8.26-8.26,8.26H24.59s-.09,0-.09,0c-4.42,0-8-3.58-8-8h0s0-.14,0-.14v-.12s0-66.04,0-66.04c0-4.56,3.7-8.26,8.26-8.26s8.26,3.7,8.26,8.26v46.47l16.51-16.51v-29.96c0-4.56,3.69-8.25,8.25-8.25s8.25,3.7,8.25,8.25v13.46l19.38-19.38c1.5-1.5,3.52-2.34,5.64-2.34h0c4.42,0,8,3.58,8,8,0,2.12-.84,4.15-2.34,5.65l-19.38,19.38h13.47c4.56,0,8.25,3.69,8.25,8.25s-3.7,8.25-8.25,8.25h-29.97l-16.51,16.51h46.48Z"/>
    </g>
  </g>
</svg>